<svg width="734" height="554" viewBox="0 0 734 554" fill="none" xmlns="http://www.w3.org/2000/svg">
<g filter="url(#filter0_i)">
<path d="M47.5632 368.421L314.758 522.909C318.724 525.201 323.227 526.395 327.806 526.369C332.385 526.344 336.874 525.099 340.815 522.762C400.122 487.609 641.993 346.352 681.537 322.15C683.281 321.084 682.492 318.199 682.125 316.637C681.391 313.458 675.097 308.956 670.803 306.88C664.509 303.829 658.563 299.897 652.544 296.332L632.176 284.35L608.504 270.348L582.466 254.949L554.941 238.704L526.994 222.166L499.469 205.921L473.43 190.467L449.575 176.427L429.005 164.317L412.618 154.707L405.994 150.848C402.855 149.025 399.288 148.073 395.659 148.089C392.031 148.106 388.473 149.089 385.35 150.94L47.4714 351.662C46.0186 352.528 44.8169 353.76 43.9854 355.234C43.1539 356.708 42.7213 358.375 42.7306 360.068C42.7399 361.761 43.1906 363.423 44.0382 364.888C44.8859 366.353 46.101 367.571 47.5632 368.421V368.421Z" fill="white"/>
<path d="M485.504 280.969L415.517 320.515C415.517 320.515 423.72 336.814 447.373 346.774L529.067 288.191" fill="url(#paint0_linear)"/>
<path d="M562.923 304.031L464.108 359.858C464.108 359.858 475.687 382.883 509.102 396.941L625.497 325.458" fill="url(#paint1_linear)"/>
<path d="M202.217 104.485C202.217 104.485 176.931 111.615 184.381 157.555L239.798 122.089C239.798 122.089 217.374 100.111 202.217 104.485Z" fill="#C86DD7"/>
<path opacity="0.39" d="M202.217 104.485C202.217 104.485 176.931 111.615 184.381 157.555L239.798 122.089C239.798 122.089 217.374 100.111 202.217 104.485Z" fill="#06489E"/>
<path d="M396.011 303.37C316.96 260.461 344.98 194.307 345.347 129.587C345.439 108.895 345.053 87.3214 339.438 67.1077C337.383 59.7572 334.631 52.0393 329.584 46.1773C326.758 42.8879 322.685 39.0657 318.317 38.0734C313.436 36.9708 308.831 40.7379 304.922 43.0533L291.325 51.1204L255.45 72.4919L226.347 89.7471L221.209 92.7975L199.74 105.532C203.813 103.107 212.695 111.302 214.879 113.857C219.906 119.719 222.677 127.455 224.732 134.787C230.348 154.854 230.733 176.501 230.641 197.266C230.348 262.042 193.941 344.11 273.085 386.963C317.125 410.852 384.598 451.647 384.598 451.647L516.259 373.291C502.276 364.82 433.978 323.951 396.011 303.37Z" fill="#C86DD7"/>
<path d="M370.009 187.196L361.954 181.15C361.941 180.891 361.865 180.639 361.734 180.415C361.603 180.191 361.421 180.002 361.201 179.864C353.507 174.498 345.824 169.108 338.154 163.693C337.912 163.507 337.629 163.384 337.328 163.335C337.027 163.286 336.719 163.313 336.431 163.414C336.144 163.514 335.886 163.684 335.68 163.909C335.475 164.135 335.328 164.407 335.255 164.703C334.447 166.1 335.475 167.552 336.778 168.636C338.08 169.72 339.695 171.043 341.163 172.311C340.973 172.45 340.811 172.625 340.686 172.826C339.512 174.663 337.548 177.273 337.53 179.57C337.512 181.867 339.365 183.006 340.796 184.256V184.586C340.503 187.416 341.75 188.262 343.989 189.603C344.205 189.749 344.448 189.847 344.705 189.892C344.961 189.936 345.224 189.925 345.475 189.86C347.029 190.873 348.668 191.746 350.375 192.47L357.164 195.924C358.889 196.807 360.137 194.73 359.44 193.333C360.798 193.444 361.367 191.955 361.018 190.798C361.192 190.628 361.324 190.42 361.403 190.191V190.099L363.752 191.937C365.587 193.425 367.899 190.467 366.009 188.978L364.339 187.655L367.771 190.228C368.172 190.525 368.675 190.651 369.169 190.576C369.663 190.502 370.107 190.235 370.404 189.833C370.701 189.431 370.826 188.927 370.752 188.432C370.678 187.938 370.411 187.493 370.009 187.196V187.196Z" fill="#F04900"/>
<path d="M423.353 423.495L426.252 421.657V388.966L411.921 388.451C411.921 388.451 411.646 402.399 408.251 405.578C404.856 408.757 396.489 406.478 395.663 406.754C394.837 407.03 389.204 405.394 386.671 408.003C384.139 410.613 395.259 418.147 401.168 419.525C405.214 420.343 409.366 420.498 413.462 419.985C413.462 419.985 414.747 411.624 416.802 412.451C418.857 413.277 419.004 422.116 419.004 422.116L423.353 423.495Z" fill="#FFAF68"/>
<path d="M434.143 250.428C436.159 261.633 437.349 272.971 437.703 284.35C437.941 297.214 433.409 400.01 433.409 400.01C433.409 400.01 424.894 410.007 404.159 403.979C401.149 403.116 400.195 303.664 400.195 303.664L407.37 258.054" fill="#C78CFF"/>
<path d="M424.601 198.515C423.463 198.515 385.313 197.523 359.532 174.388C359.532 174.388 347.182 186.516 352.192 195.796C352.192 195.796 388.745 231.06 416.618 223.838" fill="#FC9C54"/>
<path d="M394.378 187.6C394.327 187.52 394.256 187.455 394.173 187.41C394.089 187.364 393.996 187.341 393.901 187.341C393.806 187.341 393.713 187.364 393.63 187.41C393.546 187.455 393.476 187.52 393.424 187.6C389.75 193.168 388.43 199.968 389.754 206.509C389.901 207.207 390.965 206.913 390.837 206.215C389.665 200.294 390.758 194.148 393.901 188.997C397.041 194.872 398.657 201.444 398.599 208.108C398.599 208.256 398.658 208.399 398.763 208.504C398.868 208.609 399.01 208.668 399.158 208.668C399.307 208.668 399.449 208.609 399.554 208.504C399.659 208.399 399.718 208.256 399.718 208.108C399.766 200.921 397.924 193.848 394.378 187.6V187.6Z" fill="#42A200"/>
<path d="M384.102 448.725L387.001 446.887V414.196L372.67 413.682C372.67 413.682 372.395 427.629 369 430.808C365.605 433.987 357.238 431.709 356.412 431.984C355.586 432.26 349.953 430.625 347.421 433.234C344.888 435.843 356.008 443.378 361.917 444.756C365.963 445.574 370.116 445.729 374.212 445.215C374.212 445.215 375.496 436.854 377.551 437.681C379.606 438.508 379.753 447.347 379.753 447.347L384.102 448.725Z" fill="#FFAF68"/>
<path d="M389.24 255.188C389.24 255.188 376.028 304.031 370.652 347.748C369.367 358.241 358.522 420.83 358.522 420.83C358.522 420.83 376.395 427.372 392.286 422.245C392.286 422.245 411.187 342.382 411.994 340.82C412.802 339.258 425.555 287.53 427.023 250.41" fill="#C78CFF"/>
<path d="M429.629 193.039L422.05 190.191C420.123 190.32 402.966 195.943 395.167 207.318C394.071 210.877 393.243 214.513 392.69 218.196C391.699 223.103 390.855 228.028 390.231 232.897C389.519 238.294 389.212 243.736 389.314 249.179C389.314 251.512 389.442 252.688 389.681 255.004C390.521 255.853 391.502 256.549 392.58 257.062C415.114 266.764 432.95 254.985 433.849 253.166C434.748 251.347 437.721 224.738 439.354 208.898C439.695 205.552 438.928 202.187 437.17 199.321C435.413 196.455 432.763 194.248 429.629 193.039V193.039Z" fill="#FFC300"/>
<path d="M411.223 164.06C411.223 164.06 404.14 189.787 413.554 193.333C422.967 196.88 435.078 186.773 436.29 181.462C437.501 176.152 425.335 156.324 411.223 164.06Z" fill="#F04900"/>
<path d="M457.704 156.379C456.475 153.796 454.364 151.739 451.752 150.58C449.14 149.421 446.201 149.235 443.464 150.058C438.271 151.748 435.134 156.214 433.611 161.194C428.931 157.096 421.958 155.019 413.114 157.739C413.114 157.739 404.434 161.414 406.012 166.927C407.59 172.44 414.178 172.44 419.701 173.524C425.225 174.608 420.747 179.459 421.022 184.917C421.298 190.375 423.757 191.275 426.05 191.753C428.344 192.231 438.767 189.915 440.235 177.659C440.324 176.909 440.36 176.153 440.345 175.398C441.777 175.548 443.219 175.591 444.657 175.527C447.901 175.632 451.101 174.748 453.832 172.991C456.225 171.043 457.904 168.355 458.604 165.348C459.305 162.341 458.989 159.186 457.704 156.379V156.379Z" fill="#653200"/>
<path d="M402.159 192.268C402.877 191.255 403.185 190.007 403.021 188.776C402.97 188.408 402.808 188.064 402.557 187.789C402.306 187.515 401.978 187.323 401.616 187.24C401.254 187.156 400.876 187.184 400.53 187.321C400.185 187.457 399.889 187.696 399.681 188.004L398.874 189.107C398.746 187.692 398.599 186.277 398.397 184.862C398.38 184.375 398.17 183.914 397.814 183.581C397.458 183.249 396.984 183.072 396.498 183.089C396.011 183.106 395.551 183.316 395.219 183.672C394.887 184.029 394.71 184.503 394.727 184.991C394.727 185.432 394.617 185.891 394.58 186.332C394.427 186.804 394.323 187.291 394.268 187.784C392.268 188.041 389.882 188.776 389.534 191.073C389.534 191.073 389.534 191.183 389.534 191.22C387.992 191.22 386.488 191.827 386.433 193.664C386.406 194.013 386.406 194.363 386.433 194.712C384.873 195.171 383.735 195.961 383.955 198.001C384.289 200.375 384.905 202.701 385.79 204.929C385.918 205.205 386.112 205.446 386.356 205.629C386.599 205.812 386.884 205.931 387.185 205.976C387.405 206.969 387.662 207.942 387.937 208.916C388.141 209.334 388.446 209.694 388.826 209.962C389.205 210.23 389.646 210.398 390.108 210.449C390.569 210.5 391.036 210.434 391.465 210.256C391.894 210.078 392.272 209.794 392.562 209.431C392.749 209.418 392.934 209.381 393.112 209.321C393.332 209.472 393.582 209.573 393.845 209.618C394.108 209.662 394.378 209.648 394.635 209.578C394.862 209.74 395.123 209.847 395.398 209.893C395.673 209.938 395.955 209.921 396.222 209.841C396.489 209.761 396.734 209.622 396.939 209.433C397.145 209.244 397.304 209.011 397.406 208.751C397.621 208.559 397.787 208.32 397.893 208.052C397.998 207.783 398.038 207.494 398.012 207.207C398.012 206.785 398.012 206.362 398.012 205.958C399.48 201.401 400.862 196.837 402.159 192.268Z" fill="#F04900"/>
<path d="M399.021 201.786C398.434 201.933 390.176 194.344 383.919 196.954C383.919 196.954 360.064 237.234 382.322 247.892C393.332 253.185 401.902 236.867 401.902 236.867L395.571 224.334L399.021 201.786Z" fill="#FFC300"/>
<path d="M258.148 154.008C263.681 154.008 268.167 147.846 268.167 140.245C268.167 132.643 263.681 126.481 258.148 126.481C252.614 126.481 248.129 132.643 248.129 140.245C248.129 147.846 252.614 154.008 258.148 154.008Z" fill="white"/>
<path d="M274.479 126.095L328.465 94.3963C328.991 94.0892 329.373 93.5857 329.528 92.9964C329.683 92.4071 329.597 91.7803 329.291 91.2539C328.984 90.7276 328.481 90.3447 327.893 90.1897C327.304 90.0346 326.679 90.12 326.153 90.427L272.167 122.126C271.907 122.278 271.679 122.48 271.497 122.72C271.314 122.96 271.181 123.234 271.104 123.526C271.028 123.818 271.009 124.122 271.05 124.421C271.091 124.72 271.19 125.008 271.341 125.268C271.493 125.529 271.695 125.757 271.935 125.94C272.175 126.122 272.448 126.256 272.739 126.332C273.031 126.409 273.334 126.428 273.633 126.387C273.931 126.346 274.219 126.247 274.479 126.095V126.095Z" fill="#F2F2F2"/>
<path d="M278.92 136.606L313.106 116.981C313.632 116.673 314.014 116.17 314.169 115.581C314.324 114.991 314.238 114.365 313.932 113.838C313.625 113.312 313.122 112.929 312.534 112.774C311.945 112.619 311.32 112.704 310.794 113.011L276.534 132.637C276.009 132.954 275.63 133.467 275.482 134.063C275.335 134.659 275.429 135.29 275.745 135.816C276.062 136.342 276.574 136.721 277.169 136.87C277.765 137.018 278.394 136.923 278.92 136.606V136.606Z" fill="#F2F2F2"/>
<path d="M266.529 202.367C268.048 194.919 264.884 187.983 259.462 186.874C254.041 185.766 248.415 190.905 246.896 198.353C245.378 205.8 248.542 212.737 253.963 213.845C259.385 214.954 265.011 209.815 266.529 202.367Z" fill="white"/>
<path d="M272.993 189.805L326.887 158.088C327.412 157.781 327.795 157.277 327.95 156.688C328.104 156.099 328.019 155.472 327.713 154.946C327.406 154.419 326.903 154.036 326.315 153.881C325.726 153.726 325.1 153.812 324.575 154.119L270.681 185.836C270.421 185.988 270.193 186.19 270.01 186.43C269.828 186.67 269.695 186.944 269.618 187.236C269.541 187.528 269.523 187.832 269.564 188.131C269.604 188.43 269.703 188.718 269.855 188.978C270.007 189.239 270.208 189.467 270.448 189.65C270.688 189.832 270.962 189.966 271.253 190.043C271.544 190.119 271.848 190.138 272.147 190.097C272.445 190.056 272.733 189.957 272.993 189.805Z" fill="#F2F2F2"/>
<path d="M277.36 200.316L311.546 180.691C312.072 180.384 312.454 179.88 312.609 179.291C312.764 178.701 312.679 178.075 312.372 177.548C312.066 177.022 311.563 176.639 310.974 176.484C310.386 176.329 309.76 176.414 309.234 176.721L275.048 196.347C274.523 196.654 274.14 197.158 273.985 197.747C273.831 198.336 273.916 198.963 274.222 199.489C274.529 200.016 275.032 200.399 275.62 200.554C276.209 200.709 276.835 200.623 277.36 200.316V200.316Z" fill="#F2F2F2"/>
<path d="M259.789 260.232C261.926 252.938 259.354 245.761 254.044 244.201C248.735 242.641 242.698 247.29 240.561 254.584C238.425 261.878 240.997 269.055 246.306 270.615C251.616 272.175 257.652 267.527 259.789 260.232Z" fill="white"/>
<path d="M266.424 248.59L320.318 216.873C320.578 216.721 320.806 216.519 320.988 216.279C321.17 216.039 321.304 215.765 321.38 215.473C321.457 215.182 321.476 214.878 321.435 214.579C321.394 214.28 321.295 213.992 321.143 213.731C320.992 213.47 320.79 213.242 320.55 213.06C320.31 212.877 320.037 212.743 319.745 212.667C319.454 212.59 319.15 212.571 318.852 212.612C318.553 212.653 318.266 212.752 318.006 212.904L264.112 244.621C263.851 244.773 263.623 244.975 263.441 245.215C263.259 245.456 263.125 245.729 263.049 246.021C262.972 246.313 262.954 246.617 262.994 246.916C263.035 247.215 263.134 247.503 263.286 247.764C263.438 248.024 263.639 248.252 263.879 248.435C264.119 248.618 264.392 248.751 264.684 248.828C264.975 248.905 265.279 248.923 265.577 248.882C265.876 248.842 266.163 248.743 266.424 248.59Z" fill="#F2F2F2"/>
<path d="M267.561 260.296L301.747 240.67C302.008 240.518 302.235 240.316 302.418 240.076C302.6 239.836 302.733 239.562 302.81 239.27C302.887 238.979 302.905 238.675 302.865 238.376C302.824 238.077 302.725 237.789 302.573 237.528C302.421 237.267 302.22 237.039 301.98 236.857C301.74 236.674 301.467 236.541 301.175 236.464C300.884 236.387 300.58 236.368 300.282 236.409C299.983 236.45 299.696 236.549 299.435 236.701L265.249 256.327C264.724 256.634 264.341 257.137 264.187 257.727C264.032 258.316 264.117 258.943 264.424 259.469C264.73 259.996 265.233 260.378 265.821 260.533C266.41 260.688 267.036 260.603 267.561 260.296V260.296Z" fill="#F2F2F2"/>
<path d="M256.533 324.466C262.066 324.466 266.552 318.303 266.552 310.702C266.552 303.1 262.066 296.938 256.533 296.938C251 296.938 246.514 303.1 246.514 310.702C246.514 318.303 251 324.466 256.533 324.466Z" fill="white"/>
<path d="M272.277 299.364L326.171 267.647C326.697 267.34 327.079 266.836 327.234 266.247C327.389 265.657 327.304 265.031 326.997 264.504C326.845 264.244 326.644 264.016 326.404 263.833C326.164 263.65 325.89 263.517 325.599 263.44C325.011 263.285 324.385 263.37 323.859 263.677L269.965 295.376C269.705 295.528 269.477 295.73 269.295 295.97C269.112 296.21 268.979 296.484 268.902 296.776C268.826 297.068 268.807 297.372 268.848 297.671C268.889 297.97 268.988 298.258 269.139 298.518C269.291 298.779 269.493 299.007 269.733 299.19C269.973 299.372 270.246 299.506 270.537 299.583C270.829 299.66 271.132 299.678 271.431 299.637C271.729 299.597 272.017 299.497 272.277 299.345V299.364Z" fill="#F2F2F2"/>
<path d="M277.085 309.177L311.271 289.551C311.797 289.244 312.179 288.74 312.334 288.151C312.489 287.562 312.403 286.935 312.097 286.409C311.945 286.148 311.743 285.92 311.504 285.737C311.264 285.555 310.99 285.421 310.699 285.344C310.11 285.189 309.485 285.275 308.959 285.582L274.773 305.207C274.247 305.514 273.865 306.018 273.71 306.607C273.555 307.197 273.641 307.823 273.947 308.35C274.254 308.876 274.757 309.259 275.345 309.414C275.934 309.569 276.559 309.484 277.085 309.177V309.177Z" fill="#F2F2F2"/>
<path d="M252.569 141.329L254.735 137.121C254.735 137.121 259.616 142.505 259.616 141.972C259.616 141.439 264.24 120.803 264.24 120.803L267.91 123.853L261.873 148.551L252.569 141.329Z" fill="#4EB300"/>
<path d="M490.697 264.467C489.918 264.464 489.149 264.295 488.44 263.971L488.092 266.268L524.792 267.206V264.467H490.697Z" fill="#EF8A3F"/>
<path d="M488.422 264.137L488.092 266.342L508.295 277.992V275.162C501.542 271.818 494.936 268.014 488.422 264.137Z" fill="#EF8A3F"/>
<path d="M508.901 105.477C507.701 105.676 506.47 105.496 505.377 104.963L482.11 284.773C483.523 285.637 484.99 286.409 486.422 287.217L509.965 105.293L508.901 105.477Z" fill="#EF8A3F"/>
<path d="M514.259 105.257C513.411 105.35 512.556 105.35 511.708 105.257C511.029 105.257 510.332 105.257 509.653 105.367L525.379 289.753C526.574 289.167 527.799 288.646 529.049 288.191L529.673 287.879H529.783L514.259 105.257Z" fill="#EF8A3F"/>
<path d="M511.708 105.275C510.769 105.28 509.831 105.347 508.9 105.477C508.534 105.506 508.166 105.506 507.8 105.477L506.258 300.264C507.046 299.983 507.894 299.913 508.717 300.062H510.13H510.901L512.442 105.275H511.708Z" fill="#EF8A3F"/>
<path d="M486.275 108.38V148.661C486.275 148.661 532.554 150.039 532.554 148.661V108.38" fill="#FF8474"/>
<path d="M509.451 119.039C522.231 119.039 532.59 114.234 532.59 108.307C532.59 102.38 522.231 97.5753 509.451 97.5753C496.672 97.5753 486.312 102.38 486.312 108.307C486.312 114.234 496.672 119.039 509.451 119.039Z" fill="#DF6D64"/>
<path d="M509.451 159.999C522.231 159.999 532.59 155.194 532.59 149.267C532.59 143.34 522.231 138.536 509.451 138.536C496.672 138.536 486.312 143.34 486.312 149.267C486.312 155.194 496.672 159.999 509.451 159.999Z" fill="#FF8474"/>
<path d="M397.039 203.495C391.802 212.039 388.205 221.487 386.433 231.354C386.231 232.511 387.992 233.007 388.268 231.85C390.003 222.139 393.538 212.84 398.691 204.433C399.241 203.348 397.663 202.43 397.039 203.495Z" fill="#F2F2F2"/>
<path d="M401.48 238.41C399.645 241.993 397.296 245.761 393.626 247.598C391.46 248.613 389.042 248.96 386.679 248.593C384.316 248.227 382.116 247.164 380.359 245.54C372.542 238.796 373.716 227.164 375.276 218.104C375.478 216.947 373.716 216.451 373.441 217.608C371.606 227.789 370.67 241.02 380.267 247.837C382.112 249.202 384.268 250.085 386.54 250.406C388.811 250.727 391.127 250.476 393.277 249.675C397.865 247.837 400.782 243.464 402.984 239.219C403.608 238.3 402.012 237.381 401.48 238.41Z" fill="#F2F2F2"/>
<path d="M421.481 286.353C420.307 309.71 413.426 332.092 407.59 354.584C401.755 377.077 396.782 399.477 392.525 422.172L394.507 421.62C398.825 398.699 403.926 375.943 409.811 353.353C415.591 331.302 422.16 309.25 423.316 286.353C423.371 285.177 421.536 285.177 421.481 286.353Z" fill="#F2F2F2"/>
<path d="M544.811 257.135V319.081L592.705 346.774L631.735 323.547V265.993" fill="#FFAF68"/>
<path d="M592.705 346.774V285.655L631.735 268.345V323.547L592.705 346.774Z" fill="#F49E5D"/>
<path d="M631.735 262.777V268.345L628.029 269.484L625.57 265.699" fill="#EA8E50"/>
<path d="M584.246 239.311L544.793 262.703L594.118 291.223C595.586 292.068 631.717 268.345 631.717 268.345L584.246 239.311Z" fill="#EA8E50"/>
<path d="M544.811 262.703V257.135L551.895 253.607L551.032 263.512" fill="#EA8E50"/>
<path d="M584.246 233.743L544.793 257.135L594.118 285.655C595.586 286.5 631.717 262.777 631.717 262.777L584.246 233.743Z" fill="#FFB883"/>
<path d="M551.693 274.611V287.419L587.585 307.927V295.358L551.693 274.611Z" fill="#EA8E50"/>
<path d="M551.216 293.759V306.586L587.108 327.093V314.506L551.216 293.759Z" fill="#EA8E50"/>
<path d="M568.244 292.9C569.132 292.815 569.754 291.723 569.634 290.46C569.513 289.197 568.696 288.242 567.808 288.327C566.92 288.412 566.298 289.504 566.419 290.767C566.539 292.03 567.356 292.985 568.244 292.9Z" fill="#FFB883"/>
<path d="M566.756 311.389C567.644 311.304 568.266 310.212 568.146 308.949C568.025 307.686 567.208 306.731 566.32 306.816C565.433 306.901 564.81 307.993 564.931 309.256C565.051 310.519 565.868 311.474 566.756 311.389Z" fill="#FFB883"/>
<path d="M134.157 417.945L181.316 389.701L119.697 365.922L81.841 387.257C98.6313 398.577 117.036 407.232 134.157 417.945Z" fill="url(#paint2_linear)"/>
<path d="M153.406 301.422C130.835 301.422 112.522 307.413 112.522 314.8H194.29C194.29 307.413 175.976 301.422 153.406 301.422Z" fill="#06489E"/>
<path d="M112.651 315.847L112.522 314.818C112.526 315.165 112.569 315.51 112.651 315.847V315.847Z" fill="#06489E"/>
<path d="M194.29 314.818L194.125 315.994C194.231 315.611 194.286 315.216 194.29 314.818V314.818Z" fill="#06489E"/>
<path d="M153.406 328.196C174.784 328.196 192.308 322.83 194.125 315.976L194.29 314.8H112.522L112.651 315.829C114.265 322.757 131.881 328.196 153.406 328.196Z" fill="#06489E"/>
<path d="M169.022 245.705H159.828V340.728H169.022V245.705Z" fill="#A0BB99"/>
<path d="M164.434 247.653C166.978 247.653 169.04 246.781 169.04 245.705C169.04 244.63 166.978 243.758 164.434 243.758C161.891 243.758 159.828 244.63 159.828 245.705C159.828 246.781 161.891 247.653 164.434 247.653Z" fill="#25B000"/>
<path d="M189.473 263.85L180.465 262.009L161.483 355.111L170.49 356.953L189.473 263.85Z" fill="#FFB860"/>
<path d="M189.473 263.852C189.688 262.798 187.842 261.53 185.35 261.021C182.857 260.511 180.663 260.952 180.448 262.006C180.233 263.06 182.079 264.328 184.571 264.838C187.064 265.347 189.258 264.906 189.473 263.852Z" fill="#FF8F02"/>
<path d="M142.304 316.913L133.955 321.709C133.789 321.767 133.608 321.765 133.444 321.703C133.279 321.642 133.141 321.524 133.054 321.372C132.967 321.219 132.936 321.04 132.966 320.867C132.997 320.694 133.087 320.537 133.221 320.423L141.754 315.59C141.833 315.544 141.92 315.513 142.011 315.498L140.322 306.31L131.881 311.143C131.716 311.201 131.535 311.199 131.37 311.137C131.205 311.075 131.068 310.958 130.98 310.805C130.893 310.652 130.862 310.474 130.893 310.301C130.923 310.127 131.013 309.97 131.147 309.857L139.735 304.932C139.831 304.879 139.938 304.847 140.047 304.84L138.487 296.424L130.285 301.165C130.119 301.223 129.938 301.221 129.774 301.159C129.609 301.097 129.471 300.98 129.384 300.827C129.297 300.674 129.266 300.496 129.296 300.322C129.327 300.149 129.417 299.992 129.551 299.878L138.139 294.953H138.304L136.561 285.582L128.285 290.323C128.119 290.381 127.938 290.379 127.773 290.317C127.609 290.255 127.471 290.138 127.384 289.985C127.297 289.832 127.266 289.654 127.296 289.481C127.327 289.307 127.417 289.15 127.551 289.036L136.139 284.112H136.267L134.561 274.923L126.156 279.738C125.99 279.796 125.809 279.794 125.645 279.732C125.48 279.671 125.342 279.553 125.255 279.4C125.168 279.248 125.137 279.069 125.168 278.896C125.198 278.723 125.288 278.565 125.422 278.452L133.955 273.325C134.034 273.279 134.121 273.248 134.212 273.233L132.744 265.276L124.34 270.091C124.174 270.149 123.993 270.146 123.828 270.085C123.664 270.023 123.526 269.906 123.439 269.753C123.351 269.6 123.32 269.422 123.351 269.248C123.381 269.075 123.471 268.918 123.606 268.804L132.12 263.953C132.205 263.905 132.298 263.874 132.395 263.861L130.927 255.923L122.541 260.719C122.375 260.777 122.194 260.775 122.03 260.713C121.865 260.651 121.727 260.534 121.64 260.381C121.553 260.228 121.522 260.05 121.553 259.877C121.583 259.703 121.673 259.546 121.807 259.432L130.395 254.508C130.48 254.493 130.567 254.493 130.652 254.508L129.092 245.761L120.78 250.52C120.614 250.578 120.433 250.576 120.268 250.514C120.104 250.453 119.966 250.335 119.879 250.182C119.792 250.03 119.76 249.851 119.791 249.678C119.821 249.505 119.912 249.347 120.046 249.234L128.633 244.309H128.799L128.046 240.248L109.806 251.567C109.806 251.567 122.761 323.804 123.037 323.951C130.597 327.902 144.359 328.361 144.359 328.361L142.304 316.913Z" fill="#FEDEC2"/>
<path d="M120.064 249.142C119.93 249.255 119.84 249.413 119.809 249.586C119.779 249.759 119.81 249.938 119.897 250.09C119.984 250.243 120.122 250.361 120.287 250.422C120.451 250.484 120.632 250.486 120.798 250.428L129.092 245.761L128.817 244.235H128.652L120.064 249.142Z" fill="#CA4300"/>
<path d="M121.881 259.432C121.747 259.546 121.656 259.703 121.626 259.877C121.595 260.05 121.626 260.228 121.714 260.381C121.801 260.534 121.939 260.651 122.103 260.713C122.268 260.775 122.449 260.777 122.615 260.719L131.001 255.923L130.725 254.416C130.64 254.401 130.553 254.401 130.468 254.416L121.881 259.432Z" fill="#CA4300"/>
<path d="M123.606 268.878C123.471 268.991 123.381 269.149 123.351 269.322C123.32 269.495 123.351 269.674 123.439 269.826C123.526 269.979 123.664 270.097 123.828 270.158C123.993 270.22 124.174 270.222 124.34 270.164L132.744 265.35L132.469 263.861C132.372 263.874 132.278 263.905 132.193 263.953L123.606 268.878Z" fill="#CA4300"/>
<path d="M125.367 278.323C125.233 278.437 125.143 278.594 125.113 278.767C125.082 278.941 125.113 279.119 125.2 279.272C125.287 279.425 125.425 279.542 125.59 279.604C125.754 279.665 125.935 279.667 126.101 279.609L134.506 274.795L134.23 273.306C134.138 273.295 134.045 273.302 133.955 273.325L125.367 278.323Z" fill="#CA4300"/>
<path d="M127.477 288.944C127.343 289.058 127.253 289.215 127.223 289.389C127.192 289.562 127.223 289.74 127.31 289.893C127.398 290.046 127.536 290.163 127.7 290.225C127.865 290.287 128.046 290.289 128.211 290.231L136.487 285.49L136.194 283.946H136.065L127.477 288.944Z" fill="#CA4300"/>
<path d="M129.459 299.878C129.325 299.992 129.235 300.149 129.205 300.322C129.174 300.496 129.205 300.674 129.292 300.827C129.379 300.98 129.517 301.097 129.682 301.159C129.846 301.221 130.027 301.223 130.193 301.165L138.506 296.405L138.231 294.88H138.065L129.459 299.878Z" fill="#CA4300"/>
<path d="M139.735 304.932L131.148 309.857C131.013 309.97 130.923 310.127 130.893 310.301C130.862 310.474 130.893 310.653 130.98 310.805C131.068 310.958 131.206 311.075 131.37 311.137C131.535 311.199 131.716 311.201 131.882 311.143L140.323 306.31L140.047 304.84C139.938 304.847 139.831 304.879 139.735 304.932Z" fill="#CA4300"/>
<path d="M133.166 320.423C133.032 320.537 132.942 320.694 132.911 320.867C132.881 321.04 132.912 321.219 132.999 321.372C133.086 321.524 133.224 321.642 133.389 321.703C133.553 321.765 133.734 321.767 133.9 321.709L142.304 316.895L142.029 315.406C141.938 315.421 141.851 315.452 141.772 315.498L133.166 320.423Z" fill="#CA4300"/>
<path d="M180.454 262.005C180.454 262.005 180.913 264.412 184.564 264.835C188.216 265.258 189.464 263.843 189.464 263.843L188.271 245.761L180.454 262.005Z" fill="#FFD8BD"/>
<path d="M188.271 245.761L184.601 253.332C185.119 253.899 185.818 254.268 186.578 254.375C187.338 254.483 188.112 254.322 188.766 253.92L188.271 245.761Z" fill="#653200"/>
<path d="M159.828 245.154C159.828 245.154 160.673 247.47 164.343 247.304C168.013 247.139 169.022 245.467 169.022 245.467L164.985 227.752L159.828 245.154Z" fill="#FFD8BD"/>
<path d="M165.003 227.844L162.599 235.893C163.191 236.381 163.934 236.648 164.7 236.648C165.467 236.648 166.21 236.381 166.802 235.893L165.003 227.844Z" fill="#653200"/>
<path d="M153.406 328.196C131.9 328.196 114.265 322.683 112.651 315.847C113.715 324.116 121.073 380.917 121.349 381.248C121.349 381.248 125.019 397.272 153.406 397.253C177.5 397.253 184.362 385.144 184.362 385.144L194.125 315.994C192.308 322.83 174.784 328.196 153.406 328.196Z" fill="#C86DD7"/>
</g>
<defs>
<filter id="filter0_i" x="0" y="0" width="734" height="558" filterUnits="userSpaceOnUse" color-interpolation-filters="sRGB">
<feFlood flood-opacity="0" result="BackgroundImageFix"/>
<feBlend mode="normal" in="SourceGraphic" in2="BackgroundImageFix" result="shape"/>
<feColorMatrix in="SourceAlpha" type="matrix" values="0 0 0 0 0 0 0 0 0 0 0 0 0 0 0 0 0 0 127 0" result="hardAlpha"/>
<feOffset dy="4"/>
<feGaussianBlur stdDeviation="2"/>
<feComposite in2="hardAlpha" operator="arithmetic" k2="-1" k3="1"/>
<feColorMatrix type="matrix" values="0 0 0 0 0 0 0 0 0 0 0 0 0 0 0 0 0 0 0.25 0"/>
<feBlend mode="normal" in2="shape" result="effect1_innerShadow"/>
</filter>
<linearGradient id="paint0_linear" x1="539.105" y1="249.914" x2="444.33" y2="326.925" gradientUnits="userSpaceOnUse">
<stop stop-color="#E3965D"/>
<stop offset="1" stop-color="#FFD8BD"/>
</linearGradient>
<linearGradient id="paint1_linear" x1="56335.1" y1="13832.6" x2="50084.1" y2="22670.6" gradientUnits="userSpaceOnUse">
<stop stop-color="#E3965D"/>
<stop offset="1" stop-color="#FFD8BD"/>
</linearGradient>
<linearGradient id="paint2_linear" x1="8411.91" y1="10852.7" x2="7429.25" y2="12273" gradientUnits="userSpaceOnUse">
<stop stop-color="#FFC300"/>
<stop offset="1" stop-color="#FFD8BD"/>
</linearGradient>
</defs>
</svg>
